<?xml version="1.0" encoding="UTF-8"?>
<svg id="Layer_1" data-name="Layer 1" xmlns="http://www.w3.org/2000/svg" viewBox="0 0 449.98 343.11">
  <defs>
    <style>
      .cls-1 {
        fill: #f2f2f3;
      }
    </style>
  </defs>
  <path class="cls-1" d="M364.57,204.52c-29.76.58-62.74-11.59-82.67-56.1-16.6-37.08-10.99-65.39.14-93.48,14.61-36.89,42.9-53.33,41.98-53.79-11.2-5.66-71.92,8.93-103.8,57.51,13.58-25.61,25.25-37.13,25.25-37.36-2.52-.09-112.14.83-118.6,2.26-.01.06-.01.13-.02.2-.16-.07-.24-.1-.24-.11.05-.03.13-.06.26-.09.07-.55.1-.83.11-.83s1.64-20.29,1.6-20.29c-28.73,2.9-54.04,4.66-83.28,7.47,2.43,4.72,3.63,2.78,6.54,12.09,3.5,38.5.29,96.01.26,99.91-.27,35.27,2.62,31.96-2.05,118.17-1.85,34.07-31.18,50.74-50.05,72.48,7.23.21,68.85-5.3,102.14-36.1,17.55-16.24,22.48-34.37,23.31-43.22,1.41-15.06-.19-35.51-1.4-56,5.26,7.27,10.47,15.76,14.66,25.19,12.71,28.66,18.59,65.56,19.69,79.15.05.68,91.73,48.21,98.36,48.04.79-.02-19.82-40.99-24.55-60.89-3.72-15.63-7.21-47.11-15.52-71.84,26.62,49.4,86.85,72.78,144.86,60.31,54.28-11.68,76.89-53.54,88.39-77.74,1.89-3.98-58.25,24.54-85.37,25.06ZM143.06,90.49c-5.24,10.83-12.76,21.84-20.11,31.41.05-15.77.2-31.25.59-46.43,1.07-30.36,2.82-47.47,3.31-51.7,3.2,1.37,40.32,16.89,16.21,66.72ZM161.5,135.17c2.52-5.12,22.55-9.24,47.28-54.15-9.05,23.66-11.55,53.22-2.29,89.61.71,2.8,1.52,5.54,2.41,8.22-19.13-34.81-47.4-43.46-47.4-43.68Z"/>
  <path class="cls-1" d="M126.87,23.56c-.01.06-.01.13-.02.2-.16-.07-.24-.1-.24-.11.05-.03.13-.06.26-.09Z"/>
  <path class="cls-1" d="M126.87,23.56c-.01.06-.01.13-.02.2-.16-.07-.24-.1-.24-.11.05-.03.13-.06.26-.09Z"/>
</svg>